<?xml version="1.0" encoding="UTF-8" standalone="no"?>
<svg xmlns="http://www.w3.org/2000/svg" xml:space="preserve" version="1.1" y="0px" x="0px"  xmlns:xlink="http://www.w3.org/1999/xlink">

	<g transform="scale(0.75)">
		<g class="pie_chart" transform="translate(-233,-165)">
         <g class="inner_chart" transform="translate(365,272)"></g>
         <g class="outer_chart" transform="translate(347,253)"></g>
			<rect height="20.903" width="86.578" y="251.41" x="243.51" fill="#E6E7E8"/>
			<text id="SVGID_2_" font-size="5.5" font-family="&apos;ArialMT&apos;" fill="#58595B" transform="translate(263.98 260.49)"><tspan y="0" x="0">Countries have </tspan><tspan y="6" x="0">no data available</tspan></text>
			<text id="SVGID_4_" font-size="12" transform="translate(250.45 266.27)" font-family="&apos;Arial-BoldMT&apos;" fill="#58595B" class="nodata_countries">2</text>
			<text id="SVGID_5_" font-size="18" transform="translate(240.96 407.22)" font-family="&apos;Arial-BoldMT&apos;" fill="#8DC63F" class="achieved_percent">65%</text>

			<rect height="20.903" width="86.578" y="251.41" x="514.49" fill="#E6E7E8"/>
			<rect height="22.679" width="377.57" y="178.54" x="232.16" fill="#6CADDF"/>
			<rect height="14.502" width="377.57" y="205.38" x="232.16" fill="#E6E7E8"/>
				<defs>
					<circle id="SVGID_1_" cy="320.58" cx="413.3" r="49.638"/>
				</defs>
				<clipPath id="SVGID_6_">
					<use xlink:href="#SVGID_1_"/>
				</clipPath>
				<g class="remove" style="clip-path:url(#SVGID_6_)">
					<polygon points="413.3 320.58 413.3 236.43 454.33 241.59 493.92 296.7" fill="#ED1C24"/>
					<polygon points="413.3 320.58 493.92 296.7 500.11 341.74 482.27 377.02 443.14 398.75 385.98 404.16 345.23 375.16 326.7 330.36 335.99 284.57 360.5 254.63" fill="#8DC63F"/>
					<polygon points="360.5 254.63 413.3 236.43 413.3 320.58" fill="#FFDE17"/>
				</g>
				<defs>
					<path id="SVGID_3_" d="m413.3 250.15c-38.896 0-70.427 31.531-70.427 70.427 0 38.898 31.531 70.43 70.427 70.43s70.427-31.531 70.427-70.43c0-38.9-31.53-70.43-70.43-70.43zm0 128.41c-32.02 0-57.976-25.957-57.976-57.979 0-32.019 25.956-57.976 57.976-57.976 32.019 0 57.976 25.957 57.976 57.976 0 32.02-25.96 57.98-57.98 57.98z"/>
				</defs>
				<clipPath id="SVGID_7_">
					<use xlink:href="#SVGID_3_"/>
				</clipPath>
				<g class="remove" style="clip-path:url(#SVGID_7_)">
					<polygon points="413.3 320.58 413.3 236.43 454.33 241.59 493.92 296.7" fill="#ED1C24"/>
					<polygon points="413.3 320.58 493.92 296.7 500.11 341.74 482.27 377.02 443.14 398.75 385.98 404.16 345.23 375.16 326.7 330.36 335.99 284.57 360.5 254.63" fill="#8DC63F"/>
					<polygon points="360.5 254.63 413.3 236.43 413.3 320.58" fill="#FFDE17"/>
				</g>
			<path d="m428.21 346.44c-14.279 8.236-32.531 3.334-40.762-10.948-8.233-14.276-3.33-32.526 10.947-40.761 14.28-8.233 32.528-3.332 40.765 10.947 8.23 14.27 3.33 32.52-10.95 40.76z" fill="#E6E7E8"/>
			<path d="m451.16 386.24c-36.265 20.91-82.609 8.459-103.52-27.805-20.91-36.265-8.46-82.612 27.804-103.52 36.263-20.906 82.613-8.458 103.52 27.807 20.92 36.26 8.47 82.61-27.8 103.51z" stroke="#A1A3A6" stroke-miterlimit="10" stroke-width=".9" fill="none"/>
					<rect transform="matrix(.8087 .5882 -.5882 .8087 240.99 -218.53)" width=".427" y="258.96" x="456.24" height="4.526" fill="#B6B8BA"/>
					<rect transform="matrix(-.5151 .8571 -.8571 -.5151 904.36 3.7621)" width="4.527" y="257.47" x="448.85" height=".429" fill="#B6B8BA"/>
					<rect transform="matrix(-.4388 .8986 -.8986 -.4388 869.78 -33.938)" width="4.526" y="254.42" x="443.22" height=".424" fill="#B6B8BA"/>
					<rect transform="matrix(-.3588 .9334 -.9334 -.3588 832.65 -67.823)" width="4.523" y="251.86" x="437.36" height=".427" fill="#B6B8BA"/>
					<rect transform="matrix(-.2759 .9612 -.9612 -.2759 793.48 -97.706)" width="4.524" y="249.83" x="431.28" height=".425" fill="#B6B8BA"/>
					<rect transform="matrix(-.1917 .9815 -.9815 -.1917 753.17 -123.21)" width="4.524" y="248.33" x="425.06" height=".424" fill="#B6B8BA"/>
					<rect transform="matrix(-.1053 .9944 -.9944 -.1053 711.53 -144.99)" width="4.527" y="247.39" x="418.73" height=".424" fill="#B6B8BA"/>
					<rect transform="matrix(-.0177 .9998 -.9998 -.0177 669.11 -162.96)" width="4.526" y="247" x="412.34" height=".425" fill="#B6B8BA"/>
					<rect transform="matrix(.0695 .9976 -.9976 .0695 626.63 -177.02)" width="4.528" y="247.16" x="405.94" height=".425" fill="#B6B8BA"/>
					<rect transform="matrix(.1567 .9876 -.9876 .1567 583.9 -187.66)" width="4.524" y="247.88" x="399.58" height=".426" fill="#B6B8BA"/>
					<rect transform="matrix(.2419 .9703 -.9703 .2419 541.83 -194.77)" width="4.525" y="249.16" x="393.3" height=".424" fill="#B6B8BA"/>
					<rect transform="matrix(.3253 .9456 -.9456 .3253 500.25 -198.78)" width="4.525" y="250.97" x="387.17" height=".426" fill="#B6B8BA"/>
					<rect transform="matrix(.4065 .9137 -.9137 .4065 459.25 -199.88)" width="4.523" y="253.32" x="381.21" height=".425" fill="#B6B8BA"/>
					<rect transform="matrix(.4842 .8749 -.8749 .4842 419.15 -198.26)" width="4.527" y="256.18" x="375.48" height=".426" fill="#B6B8BA"/>
					<rect transform="matrix(.5587 .8294 -.8294 .5587 379.72 -194.14)" width="4.527" y="259.52" x="370.02" height=".424" fill="#B6B8BA"/>
					<rect transform="matrix(.6293 .7771 -.7771 .6293 340.89 -187.63)" width="4.523" y="263.33" x="364.87" height=".425" fill="#B6B8BA"/>
					<rect transform="matrix(.6943 .7197 -.7197 .6943 303.51 -178.91)" width="4.526" y="267.57" x="360.08" height=".423" fill="#B6B8BA"/>
					<rect transform="matrix(.7549 .6559 -.6559 .7549 266.42 -167.98)" width="4.524" y="272.21" x="355.67" height=".427" fill="#B6B8BA"/>
					<rect transform="matrix(.809 .5878 -.5878 .809 230.67 -155.06)" width="4.525" y="277.22" x="351.68" height=".427" fill="#B6B8BA"/>
					<rect transform="matrix(-.5153 .857 -.857 -.5153 773.32 128.2)" width=".424" y="280.51" x="350.2" height="4.526" fill="#B6B8BA"/>
					<rect transform="matrix(-.4394 .8983 -.8983 -.4394 759.04 103.08)" width=".425" y="286.13" x="347.14" height="4.523" fill="#B6B8BA"/>
					<rect transform="matrix(-.3632 .9317 -.9317 -.3632 744.21 79.901)" width=".423" y="292" x="344.59" height="4.525" fill="#B6B8BA"/>
					<rect transform="matrix(-.275 .9614 -.9614 -.275 725.79 53.389)" width=".423" y="298.08" x="342.56" height="4.524" fill="#B6B8BA"/>
					<rect transform="matrix(-.1941 .981 -.981 -.1941 708.25 31.296)" width=".425" y="304.3" x="341.06" height="4.524" fill="#B6B8BA"/>
					<rect transform="matrix(-.1079 .9942 -.9942 -.1079 688.11 8.3212)" width=".425" y="310.63" x="340.11" height="4.525" fill="#B6B8BA"/>
					<rect transform="matrix(-.016 .9999 -.9999 -.016 664.62 -15.49)" width=".427" y="317.02" x="339.72" height="4.525" fill="#B6B8BA"/>
					<rect transform="matrix(.074 .9973 -.9973 .074 639.72 -37.581)" width=".429" y="323.42" x="339.88" height="4.524" fill="#B6B8BA"/>
					<rect transform="matrix(.1573 .9875 -.9875 .1573 615.11 -56.77)" width=".425" y="329.78" x="340.61" height="4.524" fill="#B6B8BA"/>
					<rect transform="matrix(.2404 .9707 -.9707 .2404 588.26 -75.07)" width=".425" y="336.06" x="341.88" height="4.524" fill="#B6B8BA"/>
					<rect transform="matrix(.3245 .9459 -.9459 .3245 558.13 -92.621)" width=".424" y="342.2" x="343.7" height="4.524" fill="#B6B8BA"/>
					<rect transform="matrix(.4081 .913 -.913 .4081 524.87 -108.69)" width=".424" y="348.15" x="346.04" height="4.525" fill="#B6B8BA"/>
					<rect transform="matrix(.4817 .8763 -.8763 .4817 493.03 -121.36)" width=".426" y="353.89" x="348.9" height="4.522" fill="#B6B8BA"/>
					<rect transform="matrix(.5611 .8278 -.8278 .5611 454.04 -133.03)" width=".425" y="359.34" x="352.24" height="4.525" fill="#B6B8BA"/>
					<rect transform="matrix(.6276 .7785 -.7785 .6276 418.18 -140.79)" width=".424" y="364.49" x="356.05" height="4.523" fill="#B6B8BA"/>
					<rect transform="matrix(.6926 .7213 -.7213 .6926 378.82 -145.83)" width=".425" y="369.29" x="360.29" height="4.523" fill="#B6B8BA"/>
					<rect transform="matrix(.7542 .6566 -.6566 .7542 336.62 -147.36)" width=".425" y="373.69" x="364.94" height="4.527" fill="#B6B8BA"/>
					<rect transform="matrix(.8044 .5941 -.5941 .8044 298.15 -145.59)" width=".427" y="377.68" x="369.94" height="4.524" fill="#B6B8BA"/>
					<rect transform="matrix(-.5153 .857 -.857 -.5153 897.63 259.26)" width="4.526" y="383.27" x="373.23" height=".428" fill="#B6B8BA"/>
					<rect transform="matrix(-.4388 .8986 -.8986 -.4388 895.69 213.69)" width="4.523" y="386.32" x="378.86" height=".421" fill="#B6B8BA"/>
					<rect transform="matrix(-.3587 .9335 -.9335 -.3587 889 167.41)" width="4.524" y="388.88" x="384.73" height=".426" fill="#B6B8BA"/>
					<rect transform="matrix(-.2759 .9612 -.9612 -.2759 877.45 121.23)" width="4.523" y="390.91" x="390.8" height=".425" fill="#B6B8BA"/>
					<rect transform="matrix(-.191 .9816 -.9816 -.191 860.95 75.685)" width="4.527" y="392.4" x="397.02" height=".428" fill="#B6B8BA"/>
					<rect transform="matrix(-.1043 .9945 -.9945 -.1043 839.36 31.222)" width="4.521" y="393.35" x="403.36" height=".427" fill="#B6B8BA"/>
					<rect transform="matrix(-.0181 .9998 -.9998 -.0181 813.38 -10.839)" width="4.522" y="393.74" x="409.75" height=".427" fill="#B6B8BA"/>
					<rect transform="matrix(.0691 .9976 -.9976 .0691 782.36 -50.816)" width="4.524" y="393.58" x="416.14" height=".424" fill="#B6B8BA"/>
					<rect transform="matrix(.1566 .9877 -.9877 .1566 746.49 -88.003)" width="4.529" y="392.86" x="422.51" height=".427" fill="#B6B8BA"/>
					<rect transform="matrix(.2418 .9703 -.9703 .2418 706.97 -121.2)" width="4.523" y="391.58" x="428.78" height=".426" fill="#B6B8BA"/>
					<rect transform="matrix(.3253 .9456 -.9456 .3253 663.75 -150.28)" width="4.527" y="389.76" x="434.92" height=".426" fill="#B6B8BA"/>
				<polygon points="443.86 389.79 442.03 385.65 442.41 385.48 444.25 389.61" fill="#B6B8BA"/>
					<rect transform="matrix(.4841 .875 -.875 .4841 568.25 -194.26)" width="4.527" y="384.56" x="446.61" height=".426" fill="#B6B8BA"/>
					<rect transform="matrix(.5584 .8296 -.8296 .5584 517.07 -208.46)" width="4.523" y="381.22" x="452.07" height=".425" fill="#B6B8BA"/>
					<rect transform="matrix(.6292 .7773 -.7773 .6292 463.91 -217.1)" width="4.523" y="377.41" x="457.21" height=".425" fill="#B6B8BA"/>
					<rect transform="matrix(.6945 .7195 -.7195 .6945 410.5 -219.97)" width="4.525" y="373.17" x="462.01" height=".427" fill="#B6B8BA"/>
					<rect transform="matrix(.754 .6569 -.6569 .754 357.52 -217.15)" width="4.525" y="368.53" x="466.42" height=".427" fill="#B6B8BA"/>
					<rect transform="matrix(.8089 .5879 -.5879 .8089 304.16 -208.39)" width="4.525" y="363.52" x="470.4" height=".427" fill="#B6B8BA"/>
					<rect transform="matrix(-.5158 .8567 -.8567 -.5158 1028.9 135.32)" width=".424" y="356.13" x="475.99" height="4.526" fill="#B6B8BA"/>
					<rect transform="matrix(-.4362 .8999 -.8999 -.4362 1005.7 75.36)" width=".425" y="350.5" x="479.04" height="4.527" fill="#B6B8BA"/>
					<rect transform="matrix(-.3604 .9328 -.9328 -.3604 979.02 22.459)" width=".428" y="344.63" x="481.6" height="4.525" fill="#B6B8BA"/>
					<rect transform="matrix(-.2808 .9598 -.9598 -.2808 946.82 -27.853)" width=".424" y="338.56" x="483.63" height="4.526" fill="#B6B8BA"/>
					<rect transform="matrix(-.1917 .9814 -.9814 -.1917 906.78 -77.587)" width=".428" y="332.34" x="485.13" height="4.525" fill="#B6B8BA"/>
					<rect transform="matrix(-.1056 .9944 -.9944 -.1056 864.09 -120.62)" width=".425" y="326" x="486.07" height="4.523" fill="#B6B8BA"/>
					<rect transform="matrix(-.0183 .9998 -.9998 -.0183 817.41 -158.83)" width=".427" y="319.61" x="486.47" height="4.528" fill="#B6B8BA"/>
					<rect transform="matrix(.0688 .9976 -.9976 .0688 767.77 -191.59)" width=".426" y="313.22" x="486.3" height="4.524" fill="#B6B8BA"/>
					<rect transform="matrix(.16 .9871 -.9871 .16 713.22 -219.87)" width=".427" y="306.85" x="485.58" height="4.528" fill="#B6B8BA"/>
					<rect transform="matrix(.2425 .9701 -.9701 .2425 660.8 -240.66)" width=".427" y="300.58" x="484.3" height="4.526" fill="#B6B8BA"/>
					<rect transform="matrix(.3262 .9453 -.9453 .3262 605.71 -256.38)" width=".425" y="294.44" x="482.49" height="4.527" fill="#B6B8BA"/>
					<rect transform="matrix(.4074 .9132 -.9132 .4074 550.16 -266.39)" width=".422" y="288.48" x="480.14" height="4.525" fill="#B6B8BA"/>
					<rect transform="matrix(.4813 .8766 -.8766 .4813 497.54 -270.71)" width=".426" y="282.75" x="477.28" height="4.525" fill="#B6B8BA"/>
					<rect transform="matrix(.5579 .8299 -.8299 .5579 441.64 -269.91)" width=".424" y="277.29" x="473.94" height="4.526" fill="#B6B8BA"/>
					<rect transform="matrix(.628 .7782 -.7782 .628 388.5 -263.95)" width=".429" y="272.15" x="470.13" height="4.525" fill="#B6B8BA"/>
					<rect transform="matrix(.692 .7219 -.7219 .692 338.23 -253.45)" width=".423" y="267.35" x="465.89" height="4.524" fill="#B6B8BA"/>
					<rect transform="matrix(.7503 .6611 -.6611 .7503 290.55 -238.85)" width=".427" y="262.94" x="461.25" height="4.524" fill="#B6B8BA"/>


         <text class="nodata_percent"  font-size="18" transform="translate(245.96 247.22)" font-family="&apos;Arial-BoldMT&apos;" fill="#FFDE17">
            13 %
         </text>
         <text class="failed_percent"  font-size="18" transform="translate(555.96 247.22)" font-family="&apos;Arial-BoldMT&apos;" fill="#ED1C24">
            22 %
         </text>

			<circle id="_x5F_redcircle_1_" cx="320" cy="262.22" r="5.959" fill="#FFDE17"/>
			<path fill-rule="evenodd" clip-rule="evenodd" d="m320.79 263.75h-1.884v-0.188c0-0.321 0.036-0.581 0.11-0.778 0.072-0.204 0.18-0.387 0.321-0.55 0.145-0.167 0.469-0.457 0.971-0.875 0.269-0.219 0.402-0.417 0.402-0.599s-0.056-0.324-0.165-0.421c-0.105-0.103-0.266-0.155-0.486-0.155-0.234 0-0.428 0.078-0.584 0.235-0.152 0.155-0.25 0.424-0.294 0.812l-1.923-0.239c0.066-0.707 0.323-1.275 0.769-1.706 0.45-0.434 1.138-0.65 2.062-0.65 0.72 0 1.302 0.152 1.746 0.452 0.6 0.408 0.902 0.95 0.902 1.627 0 0.279-0.078 0.551-0.234 0.813-0.154 0.26-0.472 0.578-0.95 0.956-0.334 0.264-0.547 0.478-0.636 0.64-0.09 0.16-0.13 0.37-0.13 0.63zm-1.88 0.86h1.948v1.615h-1.948v-1.61z" fill="#fff"/>
			<rect height="20.903" width="86.578" y="367.17" x="243.51" fill="#E6E7E8"/>

			<text id="SVGID_8_" font-size="5.5" font-family="&apos;ArialMT&apos;" fill="#58595B" transform="translate(261.98 376.25)">
				<tspan y="0" x="0">Countries achieved </tspan>
				<tspan y="6" x="0">their target</tspan>
			</text>

			<text id="SVGID_9_" font-size="12" transform="translate(247.12 382.03)" font-family="&apos;Arial-BoldMT&apos;" fill="#58595B" class="achieved_countries">31</text>

			<g id="_x5F_tick">
				<circle id="_x5F_greencircle" cx="320" cy="378.2" r="5.959" fill="#8DC63F"/>
				<path id="_x5F_tickpath" d="m323.72 377.73c0.107-0.081 0.128-0.233 0.044-0.337l-0.88-1.118c-0.083-0.105-0.239-0.125-0.346-0.044l-3.232 2.438c-0.107 0.081-0.261 0.059-0.342-0.047l-1.198-1.573c-0.082-0.107-0.234-0.125-0.34-0.044l-1.154 0.914c-0.105 0.082-0.124 0.238-0.043 0.346l2.318 3.047c0.083 0.107 0.165 0.181 0.185 0.165s0.038-0.024 0.041-0.021c0.002 0.001 0.092-0.062 0.199-0.141l4.74-3.59z" fill="#fff"/>
			</g>
			<g id="_x5F_cross">
				<circle id="_x5F_redcircle" cx="590.98" cy="262.22" r="5.96" fill="#ED1C24"/>
				<path id="_x5F_crosspath" d="m593.78 260.84c0.094-0.096 0.094-0.251 0-0.344l-1.066-1.063c-0.096-0.095-0.25-0.095-0.346 0l-1.213 1.209c-0.094 0.095-0.249 0.095-0.344 0l-1.215-1.209c-0.096-0.095-0.25-0.095-0.345 0l-1.065 1.063c-0.095 0.093-0.095 0.248 0 0.344l1.213 1.209c0.096 0.095 0.096 0.25 0 0.345l-1.213 1.209c-0.095 0.095-0.095 0.25 0 0.345l1.065 1.062c0.095 0.096 0.249 0.096 0.345 0l1.215-1.209c0.095-0.096 0.25-0.096 0.344 0l1.213 1.209c0.096 0.096 0.25 0.096 0.346 0l1.066-1.062c0.094-0.095 0.094-0.25 0-0.345l-1.213-1.209c-0.096-0.095-0.096-0.25 0-0.345l1.2-1.22z" fill="#fff"/>
			</g>

			<text font-size="12" transform="translate(420.6 194.22)" font-family="&apos;Arial-BoldMT&apos;" fill="#FFFFFF" class="header" text-anchor="middle">Eastern Mediterranean Region</text>

			<g transform="translate(346.24 215.72)">
				<text y="0" x="0" font-family="&apos;Arial-BoldMT&apos;" font-size="8" fill="#58595B"  class="country_count">9</text>
				<text y="0" x="12.672" font-family="&apos;ArialMT&apos;" font-size="8" fill="#58595B"  class="country_text">countries are represented in below chart</text>
			</g>



			<text  font-size="5.5" font-family="&apos;ArialMT&apos;" fill="#58595B" transform="translate(530.95 260.49)">
				<tspan y="0" x="0">Countries did not  </tspan>
				<tspan y="6" x="0">achieve their target.</tspan>
			</text>

			<text font-size="12" transform="translate(521.43 266.27)" font-family="&apos;Arial-BoldMT&apos;" fill="#58595B" class="failed_countries">8</text>


			<text fill="#6CADDF" transform="translate(400.72 313.53)">
				<tspan font-size="8" y="0" x="0" font-family="&apos;ArialMT&apos;">Target:</tspan>
				<tspan font-size="18" y="17" x="-5.341" font-family="&apos;Arial-BoldMT&apos;" class="target">75%</tspan>
			</text>

			<rect height="14.502" width="377.57" stroke="#E6E7E8" stroke-miterlimit="10" y="421.08" x="232.16" stroke-width="1.5" fill="none"/>

			<text id="SVGID_15_" font-size="6" fill="#58595B" transform="translate(405 431.32)" text-anchor="middle" class="source">
				Country cycle planning database, CAF, MICS 2003/Childinfo
			</text>

		</g>
	</g>

</svg>
